<svg id="visual" viewBox="0 0 900 600" width="900" height="600" xmlns="http://www.w3.org/2000/svg" xmlns:xlink="http://www.w3.org/1999/xlink" version="1.1"><rect x="0" y="0" width="900" height="600" fill="#000"></rect><defs><linearGradient id="grad1_0" x1="33.3%" y1="0%" x2="100%" y2="100%"><stop offset="20%" stop-color="#000000" stop-opacity="1"></stop><stop offset="80%" stop-color="#000000" stop-opacity="1"></stop></linearGradient></defs><defs><linearGradient id="grad2_0" x1="0%" y1="0%" x2="66.7%" y2="100%"><stop offset="20%" stop-color="#000000" stop-opacity="1"></stop><stop offset="80%" stop-color="#000000" stop-opacity="1"></stop></linearGradient></defs><g transform="translate(900, 0)"><path d="M0 324.5C-30 308 -60 291.4 -91.8 282.5C-123.6 273.5 -157.2 272.1 -188.1 258.9C-219 245.7 -247.3 220.6 -262.5 190.7C-277.8 160.9 -280 126.2 -288.2 93.6C-296.3 61 -310.4 30.5 -324.5 0L0 0Z" fill="#221f3b"></path></g><g transform="translate(0, 600)"><path d="M0 -324.5C29.2 -305.8 58.4 -287.1 90.2 -277.7C122.1 -268.3 156.6 -268.3 185.2 -254.8C213.7 -241.3 236.3 -214.4 257.3 -186.9C278.3 -159.5 297.7 -131.5 308.6 -100.3C319.6 -69 322 -34.5 324.5 0L0 0Z" fill="#221f3b"></path></g></svg>