<svg id="visual" viewBox="0 0 540 960" width="540" height="960" xmlns="http://www.w3.org/2000/svg" xmlns:xlink="http://www.w3.org/1999/xlink" version="1.1"><rect x="0" y="0" width="540" height="960" fill="#000"></rect><defs><linearGradient id="grad1_0" x1="0%" y1="0%" x2="100%" y2="100%"><stop offset="30%" stop-color="#000000" stop-opacity="1"></stop><stop offset="70%" stop-color="#000000" stop-opacity="1"></stop></linearGradient></defs><defs><linearGradient id="grad2_0" x1="0%" y1="0%" x2="100%" y2="100%"><stop offset="30%" stop-color="#000000" stop-opacity="1"></stop><stop offset="70%" stop-color="#000000" stop-opacity="1"></stop></linearGradient></defs><g transform="translate(540, 0)"><path d="M0 297C-28.1 269.2 -56.2 241.4 -96.1 231.9C-135.9 222.4 -187.5 231.2 -210 210C-232.5 188.8 -225.9 137.6 -235.6 97.6C-245.2 57.6 -271.1 28.8 -297 0L0 0Z" fill="#221f3b"></path></g><g transform="translate(0, 960)"><path d="M0 -297C30.4 -275.9 60.8 -254.8 101.4 -244.8C142 -234.9 192.8 -236.1 210 -210C227.3 -183.9 211 -130.6 219.9 -91.1C228.8 -51.5 262.9 -25.8 297 0L0 0Z" fill="#221f3b"></path></g></svg>